<svg viewBox="0 0 360 150" xmlns="http://www.w3.org/2000/svg" role="img" style="width:100%;height:auto;display:block"><text x="8" y="14" fill="#8d8a85" font-size="10" font-weight="400" text-anchor="start" font-family="inherit">Before</text><text x="190" y="14" fill="#7dd3a8" font-size="10" font-weight="600" text-anchor="start" font-family="inherit">After</text><g clip-path="url(#cl)"><clipPath id="cl"><rect x="8" y="24" width="162" height="116" rx="6"/></clipPath><rect x="8" y="24" width="162" height="116" fill="#22262c"/><rect x="8" y="112" width="162" height="28" fill="#3b332b"/><circle cx="86.5" cy="135.6" r="1.1" fill="#4a4036"/><circle cx="49.7" cy="114.6" r="1.0" fill="#4a4036"/><circle cx="51.4" cy="130.9" r="1.0" fill="#4a4036"/><circle cx="72.7" cy="118.8" r="1.4" fill="#4a4036"/><circle cx="148.0" cy="129.6" r="1.0" fill="#4a4036"/><circle cx="126.9" cy="137.1" r="1.4" fill="#4a4036"/><circle cx="20.8" cy="133.4" r="1.7" fill="#4a4036"/><circle cx="63.3" cy="117.3" r="1.0" fill="#4a4036"/><circle cx="95.0" cy="135.0" r="1.4" fill="#4a4036"/><circle cx="157.5" cy="119.1" r="1.1" fill="#4a4036"/><circle cx="129.4" cy="129.6" r="1.2" fill="#4a4036"/><circle cx="118.0" cy="122.1" r="0.9" fill="#4a4036"/><circle cx="75.1" cy="115.1" r="1.4" fill="#4a4036"/><circle cx="62.2" cy="125.9" r="1.4" fill="#4a4036"/><circle cx="49.6" cy="125.1" r="0.8" fill="#4a4036"/><circle cx="157.9" cy="127.5" r="1.8" fill="#4a4036"/><circle cx="17.1" cy="128.7" r="1.5" fill="#4a4036"/><circle cx="61.3" cy="116.2" r="1.0" fill="#4a4036"/><circle cx="31.1" cy="132.4" r="0.9" fill="#4a4036"/><circle cx="139.9" cy="124.2" r="1.3" fill="#4a4036"/><circle cx="103.3" cy="127.3" r="1.5" fill="#4a4036"/><circle cx="105.5" cy="121.9" r="1.5" fill="#4a4036"/><circle cx="49.8" cy="131.1" r="1.6" fill="#4a4036"/><circle cx="133.7" cy="121.4" r="1.6" fill="#4a4036"/><circle cx="166.3" cy="124.9" r="1.1" fill="#4a4036"/><circle cx="92.8" cy="136.6" r="0.9" fill="#4a4036"/><circle cx="9.5" cy="125.4" r="1.5" fill="#4a4036"/><circle cx="133.4" cy="122.7" r="1.8" fill="#4a4036"/><circle cx="45.0" cy="132.2" r="0.9" fill="#4a4036"/><circle cx="12.5" cy="117.2" r="0.9" fill="#4a4036"/><rect x="8" y="92" width="162" height="20" fill="#5f5142"/><circle cx="89.3" cy="102.9" r="1.3" fill="#7a6a57"/><circle cx="160.2" cy="99.8" r="1.2" fill="#7a6a57"/><circle cx="36.7" cy="105.8" r="2.3" fill="#7a6a57"/><circle cx="34.3" cy="94.5" r="2.1" fill="#7a6a57"/><circle cx="47.3" cy="109.7" r="1.7" fill="#7a6a57"/><circle cx="111.1" cy="99.5" r="2.1" fill="#7a6a57"/><circle cx="82.5" cy="99.2" r="2.3" fill="#7a6a57"/><circle cx="25.5" cy="105.7" r="1.1" fill="#7a6a57"/><circle cx="112.6" cy="100.4" r="2.2" fill="#7a6a57"/><circle cx="17.7" cy="103.0" r="1.6" fill="#7a6a57"/><circle cx="156.9" cy="109.1" r="1.9" fill="#7a6a57"/><circle cx="44.3" cy="98.0" r="1.4" fill="#7a6a57"/><circle cx="78.3" cy="97.7" r="1.3" fill="#7a6a57"/><circle cx="131.0" cy="104.3" r="1.4" fill="#7a6a57"/><circle cx="169.1" cy="97.5" r="1.8" fill="#7a6a57"/><circle cx="33.4" cy="107.8" r="2.2" fill="#7a6a57"/><circle cx="51.3" cy="106.0" r="2.2" fill="#7a6a57"/><circle cx="53.8" cy="99.3" r="1.7" fill="#7a6a57"/><circle cx="152.3" cy="96.6" r="2.0" fill="#7a6a57"/><circle cx="104.8" cy="101.2" r="1.8" fill="#7a6a57"/><circle cx="151.0" cy="97.4" r="2.2" fill="#7a6a57"/><circle cx="66.4" cy="106.5" r="2.2" fill="#7a6a57"/><circle cx="37.5" cy="107.8" r="2.4" fill="#7a6a57"/><circle cx="56.2" cy="94.4" r="1.2" fill="#7a6a57"/><circle cx="165.8" cy="94.2" r="2.3" fill="#7a6a57"/><circle cx="32.4" cy="105.8" r="1.1" fill="#7a6a57"/><circle cx="35.3" cy="104.9" r="1.1" fill="#7a6a57"/><circle cx="63.0" cy="108.7" r="2.0" fill="#7a6a57"/><circle cx="150.9" cy="109.7" r="1.0" fill="#7a6a57"/><circle cx="46.0" cy="106.7" r="2.0" fill="#7a6a57"/><circle cx="14.1" cy="102.1" r="1.3" fill="#7a6a57"/><circle cx="77.7" cy="95.7" r="1.0" fill="#7a6a57"/><circle cx="168.5" cy="99.1" r="2.2" fill="#7a6a57"/><circle cx="27.5" cy="101.8" r="1.2" fill="#7a6a57"/><circle cx="77.4" cy="96.9" r="2.0" fill="#7a6a57"/><circle cx="32.0" cy="105.8" r="1.7" fill="#7a6a57"/><circle cx="26.2" cy="99.7" r="1.7" fill="#7a6a57"/><circle cx="156.8" cy="99.6" r="1.3" fill="#7a6a57"/><circle cx="164.7" cy="108.1" r="2.0" fill="#7a6a57"/><circle cx="52.2" cy="96.8" r="1.4" fill="#7a6a57"/><rect x="8" y="56" width="162" height="36" fill="#3d4046"/><path d="M38.6,56 L42.6,69.0 L40.6,82.0" stroke="#23252a" stroke-width="1.6" fill="none"/><path d="M78.7,56 L82.7,69.0 L80.7,82.0" stroke="#23252a" stroke-width="1.6" fill="none"/><path d="M126.6,56 L130.6,69.0 L128.6,82.0" stroke="#23252a" stroke-width="1.6" fill="none"/></g><path d="M174,84 L184,84 M180,79 L185,84 L180,89" stroke="#8d8a85" stroke-width="1.5" fill="none"/><g clip-path="url(#cr)"><clipPath id="cr"><rect x="190" y="24" width="162" height="116" rx="6"/></clipPath><rect x="190" y="24" width="162" height="116" fill="#22262c"/><rect x="190" y="112" width="162" height="28" fill="#3b332b"/><circle cx="256.1" cy="127.4" r="1.2" fill="#4a4036"/><circle cx="191.7" cy="130.5" r="1.5" fill="#4a4036"/><circle cx="278.1" cy="127.2" r="1.5" fill="#4a4036"/><circle cx="349.1" cy="135.0" r="1.5" fill="#4a4036"/><circle cx="254.7" cy="121.6" r="1.2" fill="#4a4036"/><circle cx="347.6" cy="123.3" r="1.2" fill="#4a4036"/><circle cx="256.4" cy="117.4" r="1.8" fill="#4a4036"/><circle cx="190.9" cy="128.6" r="1.7" fill="#4a4036"/><circle cx="231.3" cy="128.7" r="1.2" fill="#4a4036"/><circle cx="229.0" cy="118.8" r="0.9" fill="#4a4036"/><circle cx="326.6" cy="132.8" r="1.7" fill="#4a4036"/><circle cx="198.0" cy="130.7" r="1.1" fill="#4a4036"/><circle cx="294.7" cy="127.2" r="1.1" fill="#4a4036"/><circle cx="347.4" cy="114.0" r="1.5" fill="#4a4036"/><circle cx="328.3" cy="126.2" r="1.4" fill="#4a4036"/><circle cx="351.1" cy="119.6" r="1.4" fill="#4a4036"/><circle cx="310.4" cy="123.1" r="1.5" fill="#4a4036"/><circle cx="253.8" cy="126.6" r="1.4" fill="#4a4036"/><circle cx="299.7" cy="121.7" r="1.4" fill="#4a4036"/><circle cx="278.0" cy="119.4" r="1.4" fill="#4a4036"/><circle cx="232.9" cy="135.8" r="1.3" fill="#4a4036"/><circle cx="306.9" cy="126.5" r="1.3" fill="#4a4036"/><circle cx="225.8" cy="117.4" r="1.7" fill="#4a4036"/><circle cx="275.7" cy="126.6" r="1.3" fill="#4a4036"/><circle cx="321.8" cy="119.7" r="1.0" fill="#4a4036"/><circle cx="323.1" cy="125.0" r="1.4" fill="#4a4036"/><circle cx="324.0" cy="135.5" r="1.7" fill="#4a4036"/><circle cx="197.0" cy="123.2" r="1.6" fill="#4a4036"/><circle cx="322.5" cy="117.0" r="1.0" fill="#4a4036"/><circle cx="230.7" cy="116.5" r="1.2" fill="#4a4036"/><rect x="190" y="92" width="162" height="20" fill="#5f5142"/><circle cx="320.1" cy="102.3" r="1.6" fill="#7a6a57"/><circle cx="204.3" cy="100.3" r="2.4" fill="#7a6a57"/><circle cx="302.6" cy="101.2" r="1.7" fill="#7a6a57"/><circle cx="319.3" cy="106.1" r="1.2" fill="#7a6a57"/><circle cx="300.2" cy="99.9" r="1.7" fill="#7a6a57"/><circle cx="228.5" cy="99.9" r="1.5" fill="#7a6a57"/><circle cx="251.7" cy="94.3" r="1.3" fill="#7a6a57"/><circle cx="282.4" cy="94.9" r="1.2" fill="#7a6a57"/><circle cx="306.3" cy="98.4" r="1.5" fill="#7a6a57"/><circle cx="229.2" cy="107.3" r="1.1" fill="#7a6a57"/><circle cx="293.1" cy="107.7" r="1.3" fill="#7a6a57"/><circle cx="258.5" cy="106.7" r="1.9" fill="#7a6a57"/><circle cx="250.2" cy="94.7" r="1.6" fill="#7a6a57"/><circle cx="249.5" cy="105.4" r="1.4" fill="#7a6a57"/><circle cx="256.1" cy="104.4" r="2.1" fill="#7a6a57"/><circle cx="247.1" cy="100.2" r="1.8" fill="#7a6a57"/><circle cx="339.8" cy="97.1" r="2.4" fill="#7a6a57"/><circle cx="305.3" cy="100.0" r="1.9" fill="#7a6a57"/><circle cx="243.4" cy="95.1" r="2.1" fill="#7a6a57"/><circle cx="251.5" cy="102.4" r="1.7" fill="#7a6a57"/><circle cx="336.0" cy="106.1" r="1.0" fill="#7a6a57"/><circle cx="286.0" cy="101.4" r="1.6" fill="#7a6a57"/><circle cx="326.0" cy="100.6" r="1.7" fill="#7a6a57"/><circle cx="334.2" cy="101.0" r="1.7" fill="#7a6a57"/><circle cx="272.9" cy="107.2" r="1.9" fill="#7a6a57"/><circle cx="310.0" cy="100.4" r="1.1" fill="#7a6a57"/><circle cx="300.1" cy="102.9" r="2.1" fill="#7a6a57"/><circle cx="314.7" cy="95.9" r="1.3" fill="#7a6a57"/><circle cx="202.5" cy="107.1" r="1.1" fill="#7a6a57"/><circle cx="204.3" cy="106.1" r="1.8" fill="#7a6a57"/><circle cx="198.9" cy="104.9" r="2.0" fill="#7a6a57"/><circle cx="268.2" cy="94.9" r="2.0" fill="#7a6a57"/><circle cx="257.7" cy="103.3" r="2.4" fill="#7a6a57"/><circle cx="322.3" cy="108.0" r="1.2" fill="#7a6a57"/><circle cx="244.2" cy="102.3" r="1.0" fill="#7a6a57"/><circle cx="350.2" cy="98.4" r="1.4" fill="#7a6a57"/><circle cx="240.7" cy="98.1" r="2.2" fill="#7a6a57"/><circle cx="280.0" cy="102.2" r="1.6" fill="#7a6a57"/><circle cx="198.3" cy="98.9" r="2.2" fill="#7a6a57"/><circle cx="319.9" cy="107.7" r="1.4" fill="#7a6a57"/><rect x="190" y="56" width="162" height="36" fill="#3d4046"/><path d="M222.7,56 L226.7,69.0 L224.7,82.0" stroke="#23252a" stroke-width="1.6" fill="none"/><path d="M260.8,56 L264.8,69.0 L262.8,82.0" stroke="#23252a" stroke-width="1.6" fill="none"/><path d="M309.1,56 L313.1,69.0 L311.1,82.0" stroke="#23252a" stroke-width="1.6" fill="none"/><path d="M226.5,56 L230.5,70 L234.5,56 Z" fill="#050506"/><ellipse cx="230.5" cy="55.5" rx="9" ry="2.2" fill="#050506"/><path d="M267.0,56 L271.0,70 L275.0,56 Z" fill="#050506"/><ellipse cx="271.0" cy="55.5" rx="9" ry="2.2" fill="#050506"/><path d="M307.5,56 L311.5,70 L315.5,56 Z" fill="#050506"/><ellipse cx="311.5" cy="55.5" rx="9" ry="2.2" fill="#050506"/><text x="348" y="46" fill="#d6d1c9" font-size="9.5" font-weight="400" text-anchor="end" font-family="inherit">sealant ridges (&quot;tar snakes&quot;)</text></g><text x="12" y="74" fill="#9a978f" font-size="9" font-weight="400" text-anchor="start" font-family="inherit">old asphalt</text><text x="12" y="105" fill="#d4c7b5" font-size="9" font-weight="400" text-anchor="start" font-family="inherit">gravel base</text></svg>