<svg viewBox="0 0 360 120" xmlns="http://www.w3.org/2000/svg" role="img" style="width:100%;height:auto;display:block"><rect x="0" y="0" width="360" height="120" fill="#26382c"/><rect x="0" y="14" width="360" height="92" fill="#2b2e33"/><path d="M0,60 H360" stroke="#e3c14f" stroke-width="1.5" stroke-dasharray="18 12"/><rect x="30" y="70" width="34" height="16" rx="4" fill="#5a5f66"/><rect x="150" y="36" width="34" height="16" rx="4" fill="#5a5f66"/><rect x="270" y="70" width="34" height="16" rx="4" fill="#5a5f66"/><rect x="0" y="88" width="360" height="18" fill="#2f5d4a"/><path d="M0,88 H360" stroke="#e9e6df" stroke-width="1.6"/><path d="M0,80 H360" stroke="#e9e6df" stroke-width="1.6"/><path d="M0,88 l8,-8" stroke="#e9e6df" stroke-width="1.2"/><path d="M14,88 l8,-8" stroke="#e9e6df" stroke-width="1.2"/><path d="M28,88 l8,-8" stroke="#e9e6df" stroke-width="1.2"/><path d="M42,88 l8,-8" stroke="#e9e6df" stroke-width="1.2"/><path d="M56,88 l8,-8" stroke="#e9e6df" stroke-width="1.2"/><path d="M70,88 l8,-8" stroke="#e9e6df" stroke-width="1.2"/><path d="M84,88 l8,-8" stroke="#e9e6df" stroke-width="1.2"/><path d="M98,88 l8,-8" stroke="#e9e6df" stroke-width="1.2"/><path d="M112,88 l8,-8" stroke="#e9e6df" stroke-width="1.2"/><path d="M126,88 l8,-8" stroke="#e9e6df" stroke-width="1.2"/><path d="M140,88 l8,-8" stroke="#e9e6df" stroke-width="1.2"/><path d="M154,88 l8,-8" stroke="#e9e6df" stroke-width="1.2"/><path d="M168,88 l8,-8" stroke="#e9e6df" stroke-width="1.2"/><path d="M182,88 l8,-8" stroke="#e9e6df" stroke-width="1.2"/><path d="M196,88 l8,-8" stroke="#e9e6df" stroke-width="1.2"/><path d="M210,88 l8,-8" stroke="#e9e6df" stroke-width="1.2"/><path d="M224,88 l8,-8" stroke="#e9e6df" stroke-width="1.2"/><path d="M238,88 l8,-8" stroke="#e9e6df" stroke-width="1.2"/><path d="M252,88 l8,-8" stroke="#e9e6df" stroke-width="1.2"/><path d="M266,88 l8,-8" stroke="#e9e6df" stroke-width="1.2"/><path d="M280,88 l8,-8" stroke="#e9e6df" stroke-width="1.2"/><path d="M294,88 l8,-8" stroke="#e9e6df" stroke-width="1.2"/><path d="M308,88 l8,-8" stroke="#e9e6df" stroke-width="1.2"/><path d="M322,88 l8,-8" stroke="#e9e6df" stroke-width="1.2"/><path d="M336,88 l8,-8" stroke="#e9e6df" stroke-width="1.2"/><path d="M350,88 l8,-8" stroke="#e9e6df" stroke-width="1.2"/><text x="352" y="116" fill="#d6d1c9" font-size="9.5" font-weight="400" text-anchor="end" font-family="inherit">painted buffer</text></svg>