<svg viewBox="0 0 360 150" xmlns="http://www.w3.org/2000/svg" role="img" style="width:100%;height:auto;display:block"><text x="8" y="14" fill="#8d8a85" font-size="10" font-weight="400" text-anchor="start" font-family="inherit">Before</text><text x="190" y="14" fill="#7dd3a8" font-size="10" font-weight="600" text-anchor="start" font-family="inherit">After</text><g clip-path="url(#cl)"><clipPath id="cl"><rect x="8" y="24" width="162" height="116" rx="6"/></clipPath><rect x="8" y="24" width="162" height="116" fill="#22262c"/><rect x="8" y="112" width="162" height="28" fill="#3b332b"/><circle cx="68.6" cy="125.1" r="1.3" fill="#4a4036"/><circle cx="102.6" cy="122.8" r="1.6" fill="#4a4036"/><circle cx="40.4" cy="136.1" r="1.4" fill="#4a4036"/><circle cx="16.3" cy="121.5" r="1.3" fill="#4a4036"/><circle cx="74.2" cy="127.6" r="1.1" fill="#4a4036"/><circle cx="52.3" cy="133.1" r="1.1" fill="#4a4036"/><circle cx="123.1" cy="133.3" r="1.4" fill="#4a4036"/><circle cx="81.6" cy="136.4" r="1.2" fill="#4a4036"/><circle cx="150.2" cy="115.4" r="1.2" fill="#4a4036"/><circle cx="111.6" cy="115.2" r="1.7" fill="#4a4036"/><circle cx="19.7" cy="128.3" r="1.0" fill="#4a4036"/><circle cx="157.4" cy="127.5" r="1.6" fill="#4a4036"/><circle cx="88.7" cy="130.2" r="1.5" fill="#4a4036"/><circle cx="55.8" cy="119.1" r="1.6" fill="#4a4036"/><circle cx="31.6" cy="136.0" r="1.0" fill="#4a4036"/><circle cx="24.3" cy="116.3" r="1.6" fill="#4a4036"/><circle cx="162.0" cy="124.0" r="1.5" fill="#4a4036"/><circle cx="49.7" cy="135.7" r="1.5" fill="#4a4036"/><circle cx="33.1" cy="115.4" r="1.5" fill="#4a4036"/><circle cx="14.8" cy="134.1" r="1.1" fill="#4a4036"/><circle cx="45.7" cy="128.0" r="1.1" fill="#4a4036"/><circle cx="98.8" cy="117.7" r="1.7" fill="#4a4036"/><circle cx="60.6" cy="134.2" r="1.0" fill="#4a4036"/><circle cx="137.5" cy="137.5" r="1.2" fill="#4a4036"/><circle cx="13.3" cy="123.1" r="1.4" fill="#4a4036"/><circle cx="44.2" cy="127.1" r="0.9" fill="#4a4036"/><circle cx="83.2" cy="131.5" r="1.2" fill="#4a4036"/><circle cx="118.0" cy="116.7" r="1.6" fill="#4a4036"/><circle cx="27.8" cy="136.2" r="1.8" fill="#4a4036"/><circle cx="160.2" cy="126.6" r="1.1" fill="#4a4036"/><rect x="8" y="92" width="162" height="20" fill="#5f5142"/><circle cx="64.4" cy="106.0" r="1.7" fill="#7a6a57"/><circle cx="158.6" cy="95.5" r="1.7" fill="#7a6a57"/><circle cx="148.0" cy="103.6" r="1.8" fill="#7a6a57"/><circle cx="22.3" cy="96.2" r="1.4" fill="#7a6a57"/><circle cx="152.7" cy="107.5" r="1.3" fill="#7a6a57"/><circle cx="157.8" cy="94.5" r="1.8" fill="#7a6a57"/><circle cx="164.7" cy="99.5" r="2.3" fill="#7a6a57"/><circle cx="114.4" cy="94.8" r="1.5" fill="#7a6a57"/><circle cx="80.8" cy="98.0" r="2.0" fill="#7a6a57"/><circle cx="37.0" cy="106.6" r="1.4" fill="#7a6a57"/><circle cx="19.2" cy="102.9" r="1.1" fill="#7a6a57"/><circle cx="97.4" cy="106.6" r="1.8" fill="#7a6a57"/><circle cx="82.7" cy="94.5" r="1.7" fill="#7a6a57"/><circle cx="23.8" cy="104.3" r="1.2" fill="#7a6a57"/><circle cx="101.6" cy="99.6" r="1.5" fill="#7a6a57"/><circle cx="115.4" cy="96.6" r="1.2" fill="#7a6a57"/><circle cx="160.5" cy="99.3" r="2.2" fill="#7a6a57"/><circle cx="149.5" cy="101.7" r="1.2" fill="#7a6a57"/><circle cx="23.2" cy="108.1" r="1.2" fill="#7a6a57"/><circle cx="88.4" cy="102.6" r="1.2" fill="#7a6a57"/><circle cx="83.8" cy="96.6" r="1.7" fill="#7a6a57"/><circle cx="90.1" cy="99.9" r="1.3" fill="#7a6a57"/><circle cx="73.4" cy="97.3" r="1.2" fill="#7a6a57"/><circle cx="46.9" cy="107.9" r="1.7" fill="#7a6a57"/><circle cx="152.3" cy="94.2" r="2.3" fill="#7a6a57"/><circle cx="87.1" cy="106.7" r="1.8" fill="#7a6a57"/><circle cx="119.6" cy="97.7" r="2.1" fill="#7a6a57"/><circle cx="32.9" cy="98.2" r="1.0" fill="#7a6a57"/><circle cx="71.7" cy="102.3" r="1.4" fill="#7a6a57"/><circle cx="152.3" cy="95.3" r="1.8" fill="#7a6a57"/><circle cx="45.9" cy="103.5" r="2.1" fill="#7a6a57"/><circle cx="123.1" cy="95.0" r="1.3" fill="#7a6a57"/><circle cx="105.1" cy="109.7" r="1.1" fill="#7a6a57"/><circle cx="108.2" cy="105.1" r="2.1" fill="#7a6a57"/><circle cx="63.4" cy="107.0" r="1.6" fill="#7a6a57"/><circle cx="157.2" cy="94.2" r="2.3" fill="#7a6a57"/><circle cx="74.7" cy="100.5" r="1.1" fill="#7a6a57"/><circle cx="47.7" cy="105.7" r="2.0" fill="#7a6a57"/><circle cx="32.5" cy="99.5" r="1.2" fill="#7a6a57"/><circle cx="40.1" cy="97.5" r="1.5" fill="#7a6a57"/><rect x="8" y="56" width="162" height="36" fill="#3d4046"/><path d="M53.1,56 L57.1,69.0 L55.1,82.0" stroke="#23252a" stroke-width="1.6" fill="none"/><path d="M94.0,56 L98.0,69.0 L96.0,82.0" stroke="#23252a" stroke-width="1.6" fill="none"/><path d="M131.2,56 L135.2,69.0 L133.2,82.0" stroke="#23252a" stroke-width="1.6" fill="none"/></g><path d="M174,84 L184,84 M180,79 L185,84 L180,89" stroke="#8d8a85" stroke-width="1.5" fill="none"/><g clip-path="url(#cr)"><clipPath id="cr"><rect x="190" y="24" width="162" height="116" rx="6"/></clipPath><rect x="190" y="24" width="162" height="116" fill="#22262c"/><rect x="190" y="112" width="162" height="28" fill="#3b332b"/><circle cx="267.7" cy="125.9" r="1.6" fill="#4a4036"/><circle cx="337.1" cy="132.0" r="1.4" fill="#4a4036"/><circle cx="222.2" cy="129.0" r="1.6" fill="#4a4036"/><circle cx="317.4" cy="116.2" r="1.5" fill="#4a4036"/><circle cx="246.6" cy="117.9" r="1.8" fill="#4a4036"/><circle cx="299.0" cy="131.9" r="0.9" fill="#4a4036"/><circle cx="324.2" cy="136.5" r="1.7" fill="#4a4036"/><circle cx="310.7" cy="134.0" r="1.6" fill="#4a4036"/><circle cx="285.6" cy="124.4" r="1.6" fill="#4a4036"/><circle cx="317.1" cy="134.9" r="1.1" fill="#4a4036"/><circle cx="345.7" cy="126.8" r="1.7" fill="#4a4036"/><circle cx="208.8" cy="137.2" r="1.6" fill="#4a4036"/><circle cx="230.8" cy="134.1" r="1.0" fill="#4a4036"/><circle cx="222.1" cy="125.0" r="1.0" fill="#4a4036"/><circle cx="269.8" cy="135.8" r="1.5" fill="#4a4036"/><circle cx="305.1" cy="123.4" r="1.6" fill="#4a4036"/><circle cx="318.6" cy="130.4" r="1.7" fill="#4a4036"/><circle cx="323.8" cy="123.7" r="0.9" fill="#4a4036"/><circle cx="295.7" cy="134.1" r="1.1" fill="#4a4036"/><circle cx="286.4" cy="134.1" r="1.6" fill="#4a4036"/><circle cx="190.7" cy="125.7" r="0.8" fill="#4a4036"/><circle cx="207.9" cy="133.5" r="1.2" fill="#4a4036"/><circle cx="288.0" cy="125.0" r="1.1" fill="#4a4036"/><circle cx="224.6" cy="122.5" r="1.6" fill="#4a4036"/><circle cx="290.3" cy="121.0" r="0.9" fill="#4a4036"/><circle cx="233.9" cy="130.8" r="1.2" fill="#4a4036"/><circle cx="297.1" cy="133.4" r="0.9" fill="#4a4036"/><circle cx="300.6" cy="115.0" r="1.6" fill="#4a4036"/><circle cx="219.8" cy="120.5" r="1.8" fill="#4a4036"/><circle cx="248.7" cy="119.4" r="1.7" fill="#4a4036"/><rect x="190" y="92" width="162" height="20" fill="#5f5142"/><circle cx="288.9" cy="108.3" r="1.6" fill="#7a6a57"/><circle cx="270.9" cy="109.3" r="1.7" fill="#7a6a57"/><circle cx="350.1" cy="97.0" r="2.2" fill="#7a6a57"/><circle cx="216.3" cy="102.4" r="1.0" fill="#7a6a57"/><circle cx="218.4" cy="109.1" r="1.6" fill="#7a6a57"/><circle cx="321.1" cy="98.0" r="1.5" fill="#7a6a57"/><circle cx="206.3" cy="102.8" r="2.2" fill="#7a6a57"/><circle cx="273.2" cy="100.0" r="2.3" fill="#7a6a57"/><circle cx="334.8" cy="104.7" r="1.1" fill="#7a6a57"/><circle cx="291.1" cy="101.1" r="2.3" fill="#7a6a57"/><circle cx="248.6" cy="104.6" r="1.9" fill="#7a6a57"/><circle cx="250.9" cy="102.4" r="1.9" fill="#7a6a57"/><circle cx="337.0" cy="102.0" r="1.5" fill="#7a6a57"/><circle cx="348.1" cy="94.9" r="2.2" fill="#7a6a57"/><circle cx="300.7" cy="102.9" r="1.6" fill="#7a6a57"/><circle cx="311.7" cy="108.3" r="2.0" fill="#7a6a57"/><circle cx="311.5" cy="94.6" r="1.5" fill="#7a6a57"/><circle cx="212.2" cy="109.2" r="2.2" fill="#7a6a57"/><circle cx="213.4" cy="103.4" r="1.8" fill="#7a6a57"/><circle cx="197.6" cy="100.3" r="2.0" fill="#7a6a57"/><circle cx="293.9" cy="98.5" r="2.1" fill="#7a6a57"/><circle cx="237.2" cy="102.7" r="1.6" fill="#7a6a57"/><circle cx="348.5" cy="104.4" r="2.1" fill="#7a6a57"/><circle cx="299.6" cy="100.1" r="2.3" fill="#7a6a57"/><circle cx="305.0" cy="105.1" r="1.4" fill="#7a6a57"/><circle cx="216.2" cy="103.2" r="2.2" fill="#7a6a57"/><circle cx="318.6" cy="99.6" r="1.2" fill="#7a6a57"/><circle cx="273.6" cy="108.0" r="1.2" fill="#7a6a57"/><circle cx="309.6" cy="96.7" r="1.4" fill="#7a6a57"/><circle cx="198.7" cy="98.8" r="1.5" fill="#7a6a57"/><circle cx="346.6" cy="109.4" r="1.3" fill="#7a6a57"/><circle cx="240.1" cy="109.1" r="1.3" fill="#7a6a57"/><circle cx="242.0" cy="101.0" r="1.2" fill="#7a6a57"/><circle cx="232.2" cy="100.3" r="1.5" fill="#7a6a57"/><circle cx="346.1" cy="98.3" r="1.3" fill="#7a6a57"/><circle cx="337.2" cy="101.2" r="2.2" fill="#7a6a57"/><circle cx="293.2" cy="106.5" r="1.4" fill="#7a6a57"/><circle cx="214.6" cy="106.1" r="1.7" fill="#7a6a57"/><circle cx="280.5" cy="104.7" r="2.1" fill="#7a6a57"/><circle cx="234.6" cy="99.8" r="2.3" fill="#7a6a57"/><rect x="190" y="56" width="162" height="36" fill="#3d4046"/><rect x="190" y="56" width="162" height="6" fill="#26282d"/><path d="M198,34 q2,5 0,8 q-2,-3 0,-8" fill="#7dd3a8" opacity=".55"/><path d="M209,34 q2,5 0,8 q-2,-3 0,-8" fill="#7dd3a8" opacity=".55"/><path d="M220,34 q2,5 0,8 q-2,-3 0,-8" fill="#7dd3a8" opacity=".55"/><path d="M231,34 q2,5 0,8 q-2,-3 0,-8" fill="#7dd3a8" opacity=".55"/><path d="M242,34 q2,5 0,8 q-2,-3 0,-8" fill="#7dd3a8" opacity=".55"/><path d="M253,34 q2,5 0,8 q-2,-3 0,-8" fill="#7dd3a8" opacity=".55"/><path d="M264,34 q2,5 0,8 q-2,-3 0,-8" fill="#7dd3a8" opacity=".55"/><path d="M275,34 q2,5 0,8 q-2,-3 0,-8" fill="#7dd3a8" opacity=".55"/><path d="M286,34 q2,5 0,8 q-2,-3 0,-8" fill="#7dd3a8" opacity=".55"/><path d="M297,34 q2,5 0,8 q-2,-3 0,-8" fill="#7dd3a8" opacity=".55"/><path d="M308,34 q2,5 0,8 q-2,-3 0,-8" fill="#7dd3a8" opacity=".55"/><path d="M319,34 q2,5 0,8 q-2,-3 0,-8" fill="#7dd3a8" opacity=".55"/><path d="M330,34 q2,5 0,8 q-2,-3 0,-8" fill="#7dd3a8" opacity=".55"/><path d="M341,34 q2,5 0,8 q-2,-3 0,-8" fill="#7dd3a8" opacity=".55"/><text x="348" y="30" fill="#d6d1c9" font-size="9.5" font-weight="400" text-anchor="end" font-family="inherit">oil sprayed on, soaks in</text><text x="348" y="76" fill="#9a978f" font-size="8.5" font-weight="400" text-anchor="end" font-family="inherit">same thickness</text></g><text x="12" y="74" fill="#9a978f" font-size="9" font-weight="400" text-anchor="start" font-family="inherit">old asphalt</text><text x="12" y="105" fill="#d4c7b5" font-size="9" font-weight="400" text-anchor="start" font-family="inherit">gravel base</text></svg>