<svg viewBox="0 0 360 150" xmlns="http://www.w3.org/2000/svg" role="img" style="width:100%;height:auto;display:block"><text x="8" y="14" fill="#8d8a85" font-size="10" font-weight="400" text-anchor="start" font-family="inherit">Before</text><text x="190" y="14" fill="#7dd3a8" font-size="10" font-weight="600" text-anchor="start" font-family="inherit">After</text><g clip-path="url(#cl)"><clipPath id="cl"><rect x="8" y="24" width="162" height="116" rx="6"/></clipPath><rect x="8" y="24" width="162" height="116" fill="#22262c"/><rect x="8" y="112" width="162" height="28" fill="#3b332b"/><circle cx="89.4" cy="118.8" r="1.3" fill="#4a4036"/><circle cx="8.8" cy="120.3" r="0.9" fill="#4a4036"/><circle cx="72.7" cy="115.0" r="0.8" fill="#4a4036"/><circle cx="57.3" cy="119.6" r="1.4" fill="#4a4036"/><circle cx="93.7" cy="132.0" r="1.5" fill="#4a4036"/><circle cx="124.0" cy="135.1" r="1.2" fill="#4a4036"/><circle cx="60.8" cy="137.6" r="0.9" fill="#4a4036"/><circle cx="125.3" cy="129.4" r="0.8" fill="#4a4036"/><circle cx="143.3" cy="135.4" r="1.4" fill="#4a4036"/><circle cx="126.9" cy="133.5" r="0.9" fill="#4a4036"/><circle cx="92.8" cy="126.1" r="1.6" fill="#4a4036"/><circle cx="138.4" cy="133.8" r="1.4" fill="#4a4036"/><circle cx="152.6" cy="130.4" r="1.5" fill="#4a4036"/><circle cx="45.3" cy="114.7" r="0.9" fill="#4a4036"/><circle cx="66.4" cy="116.5" r="1.6" fill="#4a4036"/><circle cx="98.5" cy="129.1" r="1.4" fill="#4a4036"/><circle cx="118.3" cy="125.7" r="0.8" fill="#4a4036"/><circle cx="137.2" cy="132.0" r="1.3" fill="#4a4036"/><circle cx="94.7" cy="129.8" r="0.9" fill="#4a4036"/><circle cx="127.4" cy="120.1" r="0.9" fill="#4a4036"/><circle cx="51.0" cy="131.5" r="1.0" fill="#4a4036"/><circle cx="127.9" cy="137.4" r="1.3" fill="#4a4036"/><circle cx="70.0" cy="125.5" r="1.5" fill="#4a4036"/><circle cx="132.2" cy="128.8" r="1.4" fill="#4a4036"/><circle cx="20.6" cy="117.5" r="1.1" fill="#4a4036"/><circle cx="128.4" cy="121.3" r="1.4" fill="#4a4036"/><circle cx="10.0" cy="115.5" r="1.1" fill="#4a4036"/><circle cx="116.9" cy="130.6" r="1.5" fill="#4a4036"/><circle cx="55.1" cy="126.4" r="1.3" fill="#4a4036"/><circle cx="83.5" cy="116.8" r="1.7" fill="#4a4036"/><rect x="8" y="92" width="162" height="20" fill="#5f5142"/><circle cx="40.3" cy="109.7" r="2.3" fill="#7a6a57"/><circle cx="10.8" cy="101.3" r="2.1" fill="#7a6a57"/><circle cx="164.8" cy="101.2" r="1.4" fill="#7a6a57"/><circle cx="42.0" cy="109.1" r="1.3" fill="#7a6a57"/><circle cx="102.2" cy="96.3" r="1.7" fill="#7a6a57"/><circle cx="162.3" cy="96.1" r="2.1" fill="#7a6a57"/><circle cx="90.4" cy="108.2" r="2.0" fill="#7a6a57"/><circle cx="45.5" cy="108.4" r="1.7" fill="#7a6a57"/><circle cx="12.0" cy="94.1" r="1.7" fill="#7a6a57"/><circle cx="81.0" cy="98.8" r="1.2" fill="#7a6a57"/><circle cx="63.7" cy="99.1" r="2.2" fill="#7a6a57"/><circle cx="8.3" cy="106.0" r="2.2" fill="#7a6a57"/><circle cx="27.4" cy="108.8" r="2.0" fill="#7a6a57"/><circle cx="154.1" cy="98.6" r="1.5" fill="#7a6a57"/><circle cx="71.6" cy="110.0" r="1.8" fill="#7a6a57"/><circle cx="66.4" cy="100.8" r="1.4" fill="#7a6a57"/><circle cx="15.8" cy="95.6" r="2.2" fill="#7a6a57"/><circle cx="54.3" cy="109.0" r="1.3" fill="#7a6a57"/><circle cx="51.0" cy="102.2" r="1.3" fill="#7a6a57"/><circle cx="68.5" cy="109.3" r="2.2" fill="#7a6a57"/><circle cx="139.5" cy="104.1" r="2.3" fill="#7a6a57"/><circle cx="160.4" cy="102.8" r="2.0" fill="#7a6a57"/><circle cx="16.0" cy="105.7" r="1.6" fill="#7a6a57"/><circle cx="129.9" cy="104.3" r="1.4" fill="#7a6a57"/><circle cx="15.9" cy="108.8" r="1.2" fill="#7a6a57"/><circle cx="84.5" cy="99.5" r="1.4" fill="#7a6a57"/><circle cx="127.7" cy="109.6" r="1.4" fill="#7a6a57"/><circle cx="114.3" cy="98.8" r="1.8" fill="#7a6a57"/><circle cx="71.9" cy="96.7" r="1.2" fill="#7a6a57"/><circle cx="41.7" cy="108.5" r="1.7" fill="#7a6a57"/><circle cx="43.6" cy="108.5" r="2.4" fill="#7a6a57"/><circle cx="80.9" cy="96.2" r="1.3" fill="#7a6a57"/><circle cx="22.7" cy="99.5" r="1.1" fill="#7a6a57"/><circle cx="46.7" cy="98.1" r="1.8" fill="#7a6a57"/><circle cx="151.7" cy="106.0" r="1.6" fill="#7a6a57"/><circle cx="75.0" cy="102.4" r="1.5" fill="#7a6a57"/><circle cx="62.8" cy="95.0" r="1.4" fill="#7a6a57"/><circle cx="164.8" cy="96.0" r="1.7" fill="#7a6a57"/><circle cx="110.0" cy="107.8" r="1.3" fill="#7a6a57"/><circle cx="51.9" cy="98.0" r="1.6" fill="#7a6a57"/><rect x="8" y="56" width="162" height="36" fill="#3d4046"/><path d="M44.6,56 L48.6,69.0 L46.6,82.0" stroke="#23252a" stroke-width="1.6" fill="none"/><path d="M93.3,56 L97.3,69.0 L95.3,82.0" stroke="#23252a" stroke-width="1.6" fill="none"/><path d="M132.1,56 L136.1,69.0 L134.1,82.0" stroke="#23252a" stroke-width="1.6" fill="none"/></g><path d="M174,84 L184,84 M180,79 L185,84 L180,89" stroke="#8d8a85" stroke-width="1.5" fill="none"/><g clip-path="url(#cr)"><clipPath id="cr"><rect x="190" y="24" width="162" height="116" rx="6"/></clipPath><rect x="190" y="24" width="162" height="116" fill="#22262c"/><rect x="190" y="112" width="162" height="28" fill="#3b332b"/><rect x="190" y="86" width="162" height="26" fill="#7b6a55"/><circle cx="331.4" cy="88.5" r="1.0" fill="#9b8a73"/><circle cx="304.9" cy="107.7" r="1.7" fill="#9b8a73"/><circle cx="285.1" cy="88.0" r="1.5" fill="#9b8a73"/><circle cx="340.1" cy="106.2" r="2.2" fill="#9b8a73"/><circle cx="347.5" cy="93.5" r="1.2" fill="#9b8a73"/><circle cx="215.0" cy="99.5" r="2.0" fill="#9b8a73"/><circle cx="342.5" cy="103.9" r="1.9" fill="#9b8a73"/><circle cx="313.9" cy="98.1" r="1.8" fill="#9b8a73"/><circle cx="196.4" cy="105.2" r="1.3" fill="#9b8a73"/><circle cx="339.0" cy="102.2" r="1.4" fill="#9b8a73"/><circle cx="210.7" cy="93.5" r="1.9" fill="#9b8a73"/><circle cx="303.2" cy="90.5" r="1.1" fill="#9b8a73"/><circle cx="275.0" cy="100.8" r="1.5" fill="#9b8a73"/><circle cx="226.2" cy="101.2" r="1.0" fill="#9b8a73"/><circle cx="238.8" cy="98.1" r="2.3" fill="#9b8a73"/><circle cx="294.4" cy="107.4" r="1.7" fill="#9b8a73"/><circle cx="228.0" cy="93.4" r="2.3" fill="#9b8a73"/><circle cx="304.2" cy="94.8" r="1.0" fill="#9b8a73"/><circle cx="270.7" cy="102.8" r="1.6" fill="#9b8a73"/><circle cx="231.7" cy="102.7" r="2.3" fill="#9b8a73"/><circle cx="226.7" cy="88.8" r="1.5" fill="#9b8a73"/><circle cx="258.1" cy="103.0" r="1.3" fill="#9b8a73"/><circle cx="319.1" cy="104.3" r="1.7" fill="#9b8a73"/><circle cx="223.2" cy="109.3" r="1.4" fill="#9b8a73"/><circle cx="322.8" cy="93.1" r="1.3" fill="#9b8a73"/><circle cx="313.2" cy="94.5" r="2.3" fill="#9b8a73"/><circle cx="270.3" cy="92.1" r="1.3" fill="#9b8a73"/><circle cx="257.6" cy="102.6" r="2.3" fill="#9b8a73"/><circle cx="213.7" cy="96.7" r="1.3" fill="#9b8a73"/><circle cx="347.8" cy="91.1" r="1.1" fill="#9b8a73"/><circle cx="199.7" cy="96.7" r="2.3" fill="#9b8a73"/><circle cx="333.1" cy="104.1" r="2.4" fill="#9b8a73"/><circle cx="340.9" cy="95.2" r="1.3" fill="#9b8a73"/><circle cx="341.6" cy="104.4" r="1.0" fill="#9b8a73"/><circle cx="297.6" cy="96.3" r="1.5" fill="#9b8a73"/><circle cx="243.7" cy="91.7" r="1.0" fill="#9b8a73"/><circle cx="235.3" cy="95.7" r="2.3" fill="#9b8a73"/><circle cx="210.0" cy="109.2" r="1.3" fill="#9b8a73"/><circle cx="247.8" cy="106.1" r="2.2" fill="#9b8a73"/><circle cx="260.1" cy="89.1" r="1.7" fill="#9b8a73"/><rect x="190" y="44" width="162" height="42" fill="#0b0c0e"/><line x1="190" y1="64" x2="352" y2="64" stroke="#4a4f57"/><text x="348" y="40" fill="#d6d1c9" font-size="10.5" font-weight="400" text-anchor="end" font-family="inherit">all-new layers</text><text x="348" y="104" fill="#efe3d2" font-size="9" font-weight="400" text-anchor="end" font-family="inherit">rebuilt base</text></g><text x="12" y="74" fill="#9a978f" font-size="9" font-weight="400" text-anchor="start" font-family="inherit">old asphalt</text><text x="12" y="105" fill="#d4c7b5" font-size="9" font-weight="400" text-anchor="start" font-family="inherit">gravel base</text></svg>